<svg width="527" height="287" viewBox="0 0 527 287" fill="none" xmlns="http://www.w3.org/2000/svg">
<path d="M143 286.253V0.746735M263 286.253V0.746735M233 286.253V0.746735M23 286.253V0.746735M53 286.253V0.746735M83 286.253V0.746735M113 286.253V0.746735M203 286.253V0.746735M173 286.253V0.746735M285.763 144.5L0.257568 145.11M285.507 24.5L0.00106812 25.1103M285.571 54.4999L0.0651855 55.1102M286.02 264.499L0.514069 265.11M285.956 234.5L0.449921 235.11M285.892 204.5L0.385803 205.11M285.828 174.5L0.321686 175.11M285.635 84.4999L0.129303 85.1101M285.699 114.5L0.19342 115.11M383 286.253V0.746735M503 286.253V0.746735M473 286.253V0.746735M293 286.253V0.746735M323 286.253V0.746735M353 286.253V0.746735M443 286.253V0.746735M413 286.253V0.746735M525.763 144.5L240.258 145.11M525.507 24.5L240.001 25.1103M525.571 54.4999L240.065 55.1102M526.02 264.499L240.514 265.11M525.956 234.5L240.45 235.11M525.892 204.5L240.386 205.11M525.828 174.5L240.322 175.11M525.635 84.4999L240.129 85.1101M525.699 114.5L240.193 115.11" stroke="#9A9797"/>
</svg>
